<svg width="184" height="49" viewBox="0 0 184 49" fill="none" xmlns="http://www.w3.org/2000/svg">
<g filter="url(#filter0_dd_1197_746)">
<rect x="10" y="5" width="46.6143" height="30.0304" rx="5.37857" fill="white"/>
<rect x="9.88795" y="4.88795" width="46.8384" height="30.2545" rx="5.49062" stroke="#D6DCE5" stroke-width="0.224107"/>
<path d="M33.0221 15.1212L30.8479 25.2848H28.2188L30.3933 15.1212H33.0221ZM44.0838 21.6839L45.468 17.8671L46.2645 21.6839H44.0838ZM47.0172 25.2848H49.4491L47.327 15.1212H45.0823C44.5779 15.1212 44.1523 15.4146 43.9628 15.8669L40.0184 25.2848H42.7794L43.3275 23.7671H46.7007L47.0172 25.2848ZM40.1554 21.9663C40.1667 19.2838 36.4458 19.1362 36.4715 17.9379C36.4792 17.5728 36.827 17.1855 37.5865 17.0861C37.9638 17.0369 39.0012 16.9992 40.1792 17.5413L40.6405 15.386C40.0078 15.1563 39.1936 14.9353 38.1809 14.9353C35.5824 14.9353 33.7533 16.3169 33.7379 18.2953C33.7215 19.7583 35.0436 20.5747 36.0398 21.0611C37.0641 21.5594 37.4083 21.8785 37.4038 22.324C37.397 23.0063 36.5867 23.3068 35.8307 23.3187C34.5086 23.3396 33.7414 22.9619 33.1299 22.6769L32.6535 24.9039C33.2676 25.186 34.4015 25.4311 35.5779 25.4437C38.3395 25.4437 40.1464 24.0791 40.1554 21.9663ZM29.2652 15.1212L25.0055 25.2848H22.2258L20.1298 17.1736C20.0024 16.674 19.8917 16.4913 19.5047 16.2806C18.8733 15.938 17.8294 15.616 16.911 15.4165L16.9737 15.1212H21.4474C22.0174 15.1212 22.5305 15.5008 22.6598 16.1574L23.767 22.039L26.5029 15.1212H29.2652Z" fill="#1434CB"/>
</g>
<g filter="url(#filter1_dd_1197_746)">
<rect x="68.6143" y="5" width="46.6143" height="30.0304" rx="5.37857" fill="white"/>
<rect x="68.5022" y="4.88795" width="46.8384" height="30.2545" rx="5.49062" stroke="#D6DCE5" stroke-width="0.224107"/>
<path d="M95.2699 13.8484H88.4066V26.1819H95.2699V13.8484Z" fill="#FF5F00"/>
<path d="M88.8425 20.0151C88.8414 18.8273 89.1105 17.6548 89.6296 16.5864C90.1486 15.518 90.9039 14.5817 91.8383 13.8484C90.6812 12.9389 89.2915 12.3732 87.8282 12.2162C86.3648 12.0591 84.8867 12.3169 83.563 12.9602C82.2392 13.6034 81.1231 14.6061 80.3423 15.8537C79.5614 17.1013 79.1473 18.5434 79.1473 20.0151C79.1473 21.4869 79.5614 22.929 80.3423 24.1766C81.1231 25.4241 82.2392 26.4269 83.563 27.0701C84.8867 27.7133 86.3648 27.9712 87.8282 27.8141C89.2915 27.657 90.6812 27.0914 91.8383 26.1819C90.9039 25.4485 90.1486 24.5122 89.6296 23.4438C89.1105 22.3754 88.8414 21.2029 88.8425 20.0151Z" fill="#EB001B"/>
<path d="M104.529 20.0151C104.529 21.4869 104.115 22.929 103.334 24.1765C102.553 25.4241 101.437 26.4268 100.113 27.0701C98.7897 27.7133 97.3117 27.9712 95.8484 27.8141C94.385 27.657 92.9954 27.0914 91.8383 26.1819C92.7719 25.4478 93.5266 24.5113 94.0455 23.4431C94.5645 22.3749 94.8341 21.2028 94.8341 20.0151C94.8341 18.8275 94.5645 17.6554 94.0455 16.5872C93.5266 15.5189 92.7719 14.5825 91.8383 13.8484C92.9954 12.9389 94.385 12.3732 95.8484 12.2162C97.3117 12.0591 98.7897 12.3169 100.113 12.9602C101.437 13.6034 102.553 14.6062 103.334 15.8537C104.115 17.1013 104.529 18.5434 104.529 20.0151Z" fill="#F79E1B"/>
<path d="M103.781 24.8756V24.6231H103.882V24.5716H103.623V24.6231H103.725V24.8756H103.781ZM104.284 24.8756V24.5711H104.204L104.113 24.7805L104.022 24.5711H103.942V24.8756H103.998V24.6459L104.084 24.8439H104.142L104.228 24.6454V24.8756H104.284Z" fill="#F79E1B"/>
</g>
<g filter="url(#filter2_dd_1197_746)">
<rect x="127.229" y="5" width="46.6143" height="30.0304" rx="5.37857" fill="white"/>
<rect x="127.116" y="4.88795" width="46.8384" height="30.2545" rx="5.49062" stroke="#D6DCE5" stroke-width="0.224107"/>
<path fill-rule="evenodd" clip-rule="evenodd" d="M137.426 15.646H134.738C134.554 15.646 134.398 15.7796 134.369 15.9611L133.282 22.8518C133.261 22.9879 133.366 23.1104 133.504 23.1104H134.787C134.971 23.1104 135.127 22.9768 135.156 22.7949L135.449 20.9364C135.477 20.7544 135.634 20.6209 135.818 20.6209H136.668C138.439 20.6209 139.46 19.7643 139.727 18.0669C139.848 17.3243 139.733 16.7408 139.385 16.332C139.003 15.8835 138.325 15.646 137.426 15.646ZM137.736 18.1627C137.589 19.127 136.852 19.127 136.14 19.127H135.734L136.018 17.3261C136.035 17.2174 136.13 17.1372 136.24 17.1372H136.426C136.911 17.1372 137.369 17.1372 137.605 17.4138C137.746 17.5789 137.79 17.824 137.736 18.1627ZM145.459 18.1318H144.172C144.063 18.1318 143.968 18.212 143.951 18.3209L143.894 18.6808L143.804 18.5504C143.525 18.146 142.904 18.0109 142.284 18.0109C140.862 18.0109 139.647 19.0879 139.411 20.5988C139.288 21.3523 139.462 22.0729 139.89 22.5755C140.282 23.0375 140.843 23.2301 141.511 23.2301C142.657 23.2301 143.292 22.4933 143.292 22.4933L143.235 22.8509C143.213 22.9877 143.319 23.1102 143.456 23.1102H144.615C144.8 23.1102 144.955 22.9766 144.984 22.7948L145.68 18.3904C145.702 18.2549 145.597 18.1318 145.459 18.1318ZM143.665 20.6364C143.541 21.3715 142.958 21.865 142.213 21.865C141.84 21.865 141.541 21.7452 141.349 21.5181C141.159 21.2926 141.087 20.9715 141.147 20.614C141.263 19.8851 141.857 19.3756 142.589 19.3756C142.955 19.3756 143.252 19.4968 143.448 19.726C143.644 19.9574 143.721 20.2804 143.665 20.6364ZM151.02 18.1317H152.314C152.495 18.1317 152.6 18.3348 152.497 18.4833L148.196 24.6914C148.126 24.792 148.012 24.8518 147.889 24.8518H146.597C146.415 24.8518 146.309 24.6471 146.415 24.4982L147.754 22.6078L146.329 18.4279C146.28 18.2826 146.387 18.1317 146.542 18.1317H147.813C147.978 18.1317 148.124 18.24 148.171 18.398L148.927 20.9226L150.711 18.2955C150.781 18.1929 150.897 18.1317 151.02 18.1317Z" fill="#253B80"/>
<path fill-rule="evenodd" clip-rule="evenodd" d="M165.043 22.8512L166.146 15.8345C166.163 15.7256 166.257 15.6454 166.367 15.645H167.608C167.745 15.645 167.851 15.7679 167.829 15.9039L166.741 22.7943C166.713 22.9762 166.557 23.1098 166.372 23.1098H165.264C165.126 23.1098 165.021 22.9872 165.043 22.8512ZM156.596 15.6454H153.908C153.724 15.6454 153.568 15.779 153.539 15.9605L152.452 22.8512C152.431 22.9872 152.536 23.1098 152.673 23.1098H154.052C154.181 23.1098 154.29 23.0163 154.31 22.8891L154.619 20.9358C154.647 20.7538 154.804 20.6203 154.987 20.6203H155.838C157.608 20.6203 158.63 19.7637 158.897 18.0663C159.018 17.3237 158.902 16.7402 158.554 16.3314C158.172 15.8829 157.495 15.6454 156.596 15.6454ZM156.906 18.1621C156.759 19.1264 156.022 19.1264 155.31 19.1264H154.904L155.189 17.3255C155.206 17.2168 155.3 17.1366 155.41 17.1366H155.596C156.081 17.1366 156.539 17.1366 156.776 17.4132C156.917 17.5783 156.96 17.8234 156.906 18.1621ZM164.629 18.1312H163.343C163.232 18.1312 163.138 18.2114 163.122 18.3203L163.065 18.6802L162.974 18.5498C162.696 18.1454 162.075 18.0103 161.455 18.0103C160.032 18.0103 158.818 19.0873 158.582 20.5981C158.459 21.3517 158.633 22.0723 159.061 22.5748C159.454 23.0369 160.014 23.2294 160.682 23.2294C161.828 23.2294 162.463 22.4927 162.463 22.4927L162.406 22.8503C162.384 22.9871 162.489 23.1096 162.627 23.1096H163.786C163.97 23.1096 164.126 22.976 164.155 22.7941L164.851 18.3898C164.872 18.2543 164.767 18.1312 164.629 18.1312ZM162.835 20.6358C162.711 21.3709 162.127 21.8644 161.383 21.8644C161.01 21.8644 160.71 21.7446 160.519 21.5175C160.328 21.292 160.257 20.9709 160.317 20.6134C160.433 19.8845 161.026 19.375 161.759 19.375C162.124 19.375 162.421 19.4962 162.617 19.7253C162.814 19.9568 162.892 20.2798 162.835 20.6358Z" fill="#179BD7"/>
</g>
<defs>
<filter id="filter0_dd_1197_746" x="0.811593" y="0.293736" width="64.9911" height="48.4071" filterUnits="userSpaceOnUse" color-interpolation-filters="sRGB">
<feFlood flood-opacity="0" result="BackgroundImageFix"/>
<feColorMatrix in="SourceAlpha" type="matrix" values="0 0 0 0 0 0 0 0 0 0 0 0 0 0 0 0 0 0 127 0" result="hardAlpha"/>
<feOffset dy="0.448214"/>
<feGaussianBlur stdDeviation="2.24107"/>
<feColorMatrix type="matrix" values="0 0 0 0 0.717647 0 0 0 0 0.717647 0 0 0 0 0.717647 0 0 0 0.08 0"/>
<feBlend mode="normal" in2="BackgroundImageFix" result="effect1_dropShadow_1197_746"/>
<feColorMatrix in="SourceAlpha" type="matrix" values="0 0 0 0 0 0 0 0 0 0 0 0 0 0 0 0 0 0 127 0" result="hardAlpha"/>
<feOffset dy="4.48214"/>
<feGaussianBlur stdDeviation="4.48214"/>
<feColorMatrix type="matrix" values="0 0 0 0 0.717647 0 0 0 0 0.717647 0 0 0 0 0.717647 0 0 0 0.08 0"/>
<feBlend mode="normal" in2="effect1_dropShadow_1197_746" result="effect2_dropShadow_1197_746"/>
<feBlend mode="normal" in="SourceGraphic" in2="effect2_dropShadow_1197_746" result="shape"/>
</filter>
<filter id="filter1_dd_1197_746" x="59.4259" y="0.293736" width="64.9911" height="48.4071" filterUnits="userSpaceOnUse" color-interpolation-filters="sRGB">
<feFlood flood-opacity="0" result="BackgroundImageFix"/>
<feColorMatrix in="SourceAlpha" type="matrix" values="0 0 0 0 0 0 0 0 0 0 0 0 0 0 0 0 0 0 127 0" result="hardAlpha"/>
<feOffset dy="0.448214"/>
<feGaussianBlur stdDeviation="2.24107"/>
<feColorMatrix type="matrix" values="0 0 0 0 0.717647 0 0 0 0 0.717647 0 0 0 0 0.717647 0 0 0 0.08 0"/>
<feBlend mode="normal" in2="BackgroundImageFix" result="effect1_dropShadow_1197_746"/>
<feColorMatrix in="SourceAlpha" type="matrix" values="0 0 0 0 0 0 0 0 0 0 0 0 0 0 0 0 0 0 127 0" result="hardAlpha"/>
<feOffset dy="4.48214"/>
<feGaussianBlur stdDeviation="4.48214"/>
<feColorMatrix type="matrix" values="0 0 0 0 0.717647 0 0 0 0 0.717647 0 0 0 0 0.717647 0 0 0 0.08 0"/>
<feBlend mode="normal" in2="effect1_dropShadow_1197_746" result="effect2_dropShadow_1197_746"/>
<feBlend mode="normal" in="SourceGraphic" in2="effect2_dropShadow_1197_746" result="shape"/>
</filter>
<filter id="filter2_dd_1197_746" x="118.04" y="0.293736" width="64.9911" height="48.4071" filterUnits="userSpaceOnUse" color-interpolation-filters="sRGB">
<feFlood flood-opacity="0" result="BackgroundImageFix"/>
<feColorMatrix in="SourceAlpha" type="matrix" values="0 0 0 0 0 0 0 0 0 0 0 0 0 0 0 0 0 0 127 0" result="hardAlpha"/>
<feOffset dy="0.448214"/>
<feGaussianBlur stdDeviation="2.24107"/>
<feColorMatrix type="matrix" values="0 0 0 0 0.717647 0 0 0 0 0.717647 0 0 0 0 0.717647 0 0 0 0.08 0"/>
<feBlend mode="normal" in2="BackgroundImageFix" result="effect1_dropShadow_1197_746"/>
<feColorMatrix in="SourceAlpha" type="matrix" values="0 0 0 0 0 0 0 0 0 0 0 0 0 0 0 0 0 0 127 0" result="hardAlpha"/>
<feOffset dy="4.48214"/>
<feGaussianBlur stdDeviation="4.48214"/>
<feColorMatrix type="matrix" values="0 0 0 0 0.717647 0 0 0 0 0.717647 0 0 0 0 0.717647 0 0 0 0.08 0"/>
<feBlend mode="normal" in2="effect1_dropShadow_1197_746" result="effect2_dropShadow_1197_746"/>
<feBlend mode="normal" in="SourceGraphic" in2="effect2_dropShadow_1197_746" result="shape"/>
</filter>
</defs>
</svg>
