<svg width="195" height="37" viewBox="0 0 195 37" fill="none" xmlns="http://www.w3.org/2000/svg">
<path d="M0 31.7759V0H6.08282L19.6103 22.4247H16.3873L29.6878 0H35.7252L35.816 31.7759H28.9161L28.8707 10.5769H30.1418L19.5195 28.4168H16.2057L5.35652 10.5769H6.89992V31.7759H0Z" fill="black"/>
<path d="M75.9153 33.1944V1.41846H81.9981L100.746 24.2971H97.7953V1.41846H105.058V33.1944H99.0209L80.2277 10.3157H83.1783V33.1944H75.9153Z" fill="black"/>
<path d="M119.482 33.1944V7.41049H109.314V1.41846H137.004V7.41049H126.836V33.1944H119.482Z" fill="black"/>
<path d="M148.024 14.2196H163.322V19.9393H148.024V14.2196ZM148.569 27.2932H165.864V33.1944H141.26V1.41846H165.274V7.3197H148.569V27.2932Z" fill="black"/>
<path d="M176.883 14.2196H192.181V19.9393H176.883V14.2196ZM177.428 27.2932H194.723V33.1944H170.12V1.41846H194.133V7.3197H177.428V27.2932Z" fill="black"/>
<path d="M55.2834 1.31465L53.9556 1.43817V7.95376C53.9556 13.1107 54.0482 14.3767 54.357 14.1606C54.5423 14.0062 57.4141 11.8137 60.6873 9.31247C63.9297 6.81122 66.6162 4.64965 66.6162 4.49525C66.6162 4.15557 62.6327 2.11752 61.2123 1.77784C59.6374 1.37641 56.9509 1.19113 55.2834 1.31465Z" fill="#0BB3D8"/>
<path d="M51.0837 2.45727C47.9957 3.72333 45.2166 6.10106 43.6726 8.75671L43.1168 9.71398L48.1501 13.7283L53.1835 17.7427L53.3688 14.2842C53.7394 7.7068 53.6776 1.71616 53.2762 1.71616C53.06 1.71616 52.0719 2.05583 51.0837 2.45727Z" fill="#0BB3D8"/>
<path d="M62.1385 8.60227C59.5755 10.6712 57.4448 12.4931 57.414 12.6784C57.3213 12.9254 71.248 16.5075 72.4214 16.5383C73.317 16.5383 72.02 11.2579 70.5687 8.84931C69.8276 7.645 67.2646 4.80408 66.9558 4.83496C66.8631 4.83496 64.6707 6.53334 62.1385 8.60227Z" fill="#0BB3D8"/>
<path d="M60.2241 14.4079C60.3167 14.6549 61.4593 17.1253 62.7562 19.9353C64.0532 22.7454 65.5354 25.926 66.0295 27.0067L66.925 29.0139L68.0366 27.9331C70.4144 25.648 72.2054 22.0042 72.6377 18.6692L72.8539 16.9709L66.9559 15.6739C63.7135 14.9637 60.8417 14.2843 60.5638 14.1608C60.1623 14.0064 60.0697 14.0991 60.2241 14.4079Z" fill="#0BB3D8"/>
<path d="M60.7723 17.7421C60.6381 17.9692 59.4317 20.409 58.0577 23.1822C56.6837 25.9554 55.1374 29.1053 54.6059 30.1682L53.6051 32.125L55.1442 32.3123C58.4155 32.7297 62.3764 31.8376 65.2443 30.0814L66.7023 29.1839L64.0109 23.7779C62.5293 20.8077 61.2561 18.1454 61.1778 17.8515C61.0461 17.4421 60.9159 17.4281 60.7723 17.7421Z" fill="#0BB3D8"/>
<path d="M58.731 20.2222C58.4693 20.2553 55.8018 20.7966 52.7683 21.4097C49.7347 22.0228 46.2978 22.7307 45.1322 22.9619L42.9725 23.3698L43.7674 24.7009C45.4418 27.542 48.5736 30.1259 51.7187 31.3165L53.3213 31.919L55.9449 26.4797C57.3846 23.489 58.7086 20.8516 58.8929 20.6097C59.1359 20.2548 59.0671 20.1432 58.731 20.2222Z" fill="#0BB3D8"/>
<path d="M54.2265 19.9144C54.055 19.7421 52.1586 18.1004 50.0038 16.2319C47.8489 14.3634 45.3979 12.254 44.5731 11.5336L43.0599 10.1872L42.536 11.5165C41.4053 14.3375 41.2827 18.0771 42.1841 21.0422L42.6465 22.5507L48.0922 21.4036C51.0849 20.7707 53.7546 20.2524 54.0349 20.2507C54.4306 20.2282 54.4733 20.1153 54.2265 19.9144Z" fill="#0BB3D8"/>
</svg>
