<svg width="1440" height="315" viewBox="0 0 1440 315" fill="none" xmlns="http://www.w3.org/2000/svg">
<rect width="1440" height="315" fill="black" fill-opacity="0.87"/>
<path d="M359.319 146.275C360.728 148.053 361.435 150.199 361.435 152.716C361.435 156.391 359.9 159.228 356.832 161.226C353.761 163.224 349.324 164.223 343.518 164.223H320V122.275H342.273C347.83 122.275 352.062 123.265 354.965 125.241C357.867 127.217 359.32 129.885 359.32 133.24C359.32 135.238 358.813 137.026 357.797 138.603C356.781 140.183 355.338 141.429 353.473 142.349C355.959 143.189 357.908 144.497 359.319 146.275ZM332.192 130.843V138.933H340.654C344.802 138.933 346.875 137.576 346.875 134.859C346.875 132.182 344.802 130.843 340.654 130.843H332.192ZM348.992 151.398C348.992 148.563 346.835 147.145 342.521 147.145H332.194V155.655H342.521C346.833 155.653 348.992 154.235 348.992 151.398Z" fill="white"/>
<path d="M378.419 122.275H390.737V154.815H411.518V164.223H378.419V122.275Z" fill="white"/>
<path d="M456.623 156.073H438.208L434.785 164.223H422.218L441.442 122.275H453.574L472.862 164.223H460.047L456.623 156.073ZM453.014 147.323L447.415 133.901L441.814 147.323H453.014Z" fill="white"/>
<path d="M495.725 162.273C492.095 160.417 489.245 157.83 487.17 154.513C485.097 151.198 484.058 147.441 484.058 143.247C484.058 139.052 485.095 135.299 487.17 131.982C489.243 128.665 492.095 126.079 495.725 124.221C499.355 122.364 503.45 121.435 508.013 121.435C511.995 121.435 515.583 122.116 518.778 123.473C521.97 124.831 524.625 126.79 526.74 129.346L518.902 136.177C516.079 132.902 512.657 131.263 508.635 131.263C506.272 131.263 504.165 131.762 502.32 132.76C500.475 133.761 499.042 135.168 498.028 136.986C497.011 138.804 496.503 140.892 496.503 143.247C496.503 145.605 497.011 147.692 498.028 149.509C499.042 151.328 500.475 152.736 502.32 153.735C504.165 154.734 506.27 155.233 508.635 155.233C512.657 155.233 516.079 153.595 518.902 150.319L526.74 157.15C524.625 159.707 521.97 161.664 518.778 163.022C515.583 164.38 511.995 165.06 508.013 165.06C503.451 165.06 499.355 164.131 495.725 162.273Z" fill="white"/>
<path d="M559.592 149.001L554.988 153.736V164.223H542.794V122.275H554.988V139.714L571.849 122.275H585.413L567.619 140.851L586.346 164.223H572.037L559.592 149.001Z" fill="white"/>
<path d="M332.659 177.646V186.874H351.883V196.042H332.659V210.424H320.339V168.477H354.496V177.645L332.659 177.646Z" fill="#0BB3D8"/>
<path d="M383.675 199.28H376.956V210.426H364.637V168.479H384.547C388.487 168.479 391.909 169.108 394.812 170.367C397.714 171.625 399.953 173.422 401.532 175.76C403.106 178.097 403.895 180.844 403.895 184.001C403.895 187.036 403.159 189.683 401.688 191.941C400.215 194.198 398.11 195.966 395.371 197.243L404.765 210.426H391.575L383.675 199.28ZM389.524 179.444C388.237 178.366 386.33 177.827 383.799 177.827H376.956V190.111H383.799C386.33 190.111 388.237 189.581 389.524 188.523C390.81 187.465 391.451 185.956 391.451 183.999C391.451 182.041 390.81 180.524 389.524 179.444Z" fill="#0BB3D8"/>
<path d="M415.033 168.479H427.353V210.426H415.033V168.479Z" fill="#0BB3D8"/>
<path d="M440.478 168.479H461.071C465.841 168.479 470.071 169.338 473.763 171.055C477.453 172.773 480.316 175.211 482.349 178.366C484.38 181.523 485.396 185.218 485.396 189.452C485.396 193.688 484.378 197.383 482.349 200.54C480.316 203.695 477.453 206.134 473.763 207.851C470.071 209.567 465.839 210.426 461.071 210.426H440.478V168.479ZM460.575 200.958C464.309 200.958 467.304 199.94 469.565 197.902C471.826 195.865 472.955 193.047 472.955 189.452C472.955 185.857 471.824 183.04 469.565 181.004C467.302 178.965 464.307 177.948 460.575 177.948H452.797V200.958H460.575Z" fill="#0BB3D8"/>
<path d="M524.781 202.276H506.366L502.944 210.426H490.376L509.6 168.479H521.732L541.021 210.426H528.205L524.781 202.276ZM521.173 193.527L515.573 180.104L509.972 193.527H521.173Z" fill="#0BB3D8"/>
<path d="M569.451 195.385V210.426H557.133V195.205L540.521 168.479H553.525L563.852 185.138L574.181 168.479H586.125L569.451 195.385Z" fill="#0BB3D8"/>
<path d="M957.611 140.176C956.231 140.176 955.039 139.964 954.035 139.541C953.047 139.118 952.247 138.482 951.635 137.635L955.188 134.271C955.549 134.788 955.933 135.181 956.341 135.447C956.764 135.698 957.219 135.824 957.705 135.824C958.239 135.824 958.67 135.667 958.999 135.353C959.345 135.039 959.572 134.592 959.682 134.012L960.976 127.518H955.376L956.223 123.331H967.305L965.234 133.683C964.921 135.267 964.434 136.537 963.776 137.494C963.117 138.435 962.27 139.118 961.235 139.541C960.215 139.964 959.007 140.176 957.611 140.176ZM974.862 140.176C973.152 140.176 971.725 139.855 970.58 139.212C969.435 138.553 968.62 137.643 968.133 136.482C967.663 135.306 967.584 133.941 967.898 132.389L969.71 123.331H975.262L973.474 132.295C973.364 132.875 973.325 133.377 973.356 133.8C973.388 134.224 973.49 134.577 973.662 134.859C973.85 135.141 974.101 135.353 974.415 135.494C974.729 135.62 975.105 135.683 975.544 135.683C976.078 135.683 976.533 135.573 976.909 135.353C977.301 135.134 977.623 134.773 977.874 134.271C978.14 133.769 978.352 133.11 978.509 132.295L980.297 123.331H985.755L983.897 132.624C983.41 135.086 982.414 136.961 980.909 138.247C979.403 139.533 977.387 140.176 974.862 140.176ZM991.547 140.176C990.575 140.176 989.642 140.106 988.748 139.964C987.853 139.823 987.038 139.627 986.301 139.376C985.579 139.11 984.952 138.819 984.418 138.506L986.559 134.412C987.171 134.757 987.783 135.047 988.395 135.283C989.022 135.502 989.642 135.667 990.253 135.777C990.881 135.886 991.5 135.941 992.112 135.941C992.598 135.941 992.998 135.902 993.312 135.824C993.641 135.745 993.884 135.635 994.041 135.494C994.214 135.337 994.3 135.165 994.3 134.977C994.3 134.726 994.159 134.522 993.876 134.365C993.594 134.208 993.218 134.067 992.747 133.941C992.292 133.816 991.783 133.691 991.218 133.565C990.669 133.424 990.112 133.251 989.547 133.047C988.983 132.828 988.465 132.553 987.995 132.224C987.54 131.895 987.171 131.479 986.889 130.977C986.607 130.475 986.465 129.863 986.465 129.142C986.465 127.887 986.795 126.797 987.453 125.872C988.128 124.946 989.085 124.233 990.324 123.731C991.579 123.213 993.069 122.954 994.794 122.954C996.017 122.954 997.155 123.08 998.206 123.331C999.272 123.566 1000.19 123.911 1000.96 124.366L998.958 128.413C998.3 128.005 997.578 127.699 996.794 127.495C996.025 127.291 995.241 127.189 994.441 127.189C993.908 127.189 993.461 127.244 993.1 127.354C992.739 127.448 992.465 127.581 992.277 127.754C992.104 127.926 992.018 128.107 992.018 128.295C992.018 128.546 992.159 128.758 992.441 128.93C992.724 129.087 993.1 129.228 993.571 129.354C994.041 129.463 994.551 129.589 995.1 129.73C995.665 129.856 996.221 130.02 996.77 130.224C997.335 130.412 997.853 130.671 998.323 131.001C998.794 131.314 999.17 131.722 999.452 132.224C999.735 132.71 999.876 133.314 999.876 134.036C999.876 135.259 999.539 136.333 998.864 137.259C998.19 138.169 997.225 138.882 995.97 139.4C994.731 139.917 993.257 140.176 991.547 140.176ZM1009.74 140.176C1008.03 140.176 1006.55 139.863 1005.29 139.235C1004.05 138.608 1003.09 137.745 1002.4 136.647C1001.72 135.534 1001.39 134.255 1001.39 132.812C1001.39 131.353 1001.64 130.028 1002.14 128.836C1002.66 127.628 1003.38 126.585 1004.3 125.707C1005.23 124.829 1006.33 124.154 1007.6 123.684C1008.87 123.197 1010.26 122.954 1011.76 122.954C1013.47 122.954 1014.95 123.268 1016.19 123.895C1017.44 124.523 1018.41 125.393 1019.08 126.507C1019.77 127.605 1020.11 128.875 1020.11 130.318C1020.11 131.777 1019.86 133.11 1019.34 134.318C1018.84 135.51 1018.12 136.545 1017.2 137.424C1016.27 138.302 1015.17 138.984 1013.9 139.47C1012.63 139.941 1011.25 140.176 1009.74 140.176ZM1014.14 143.964C1012.35 143.964 1010.84 143.564 1009.6 142.764C1008.36 141.98 1007.35 140.757 1006.56 139.094L1012.56 137.918C1012.78 138.78 1013.05 139.361 1013.36 139.659C1013.69 139.957 1014.12 140.106 1014.66 140.106C1015.06 140.106 1015.48 140.012 1015.9 139.823C1016.34 139.651 1016.74 139.408 1017.1 139.094L1019.1 142.317C1018.51 142.866 1017.78 143.274 1016.92 143.541C1016.05 143.823 1015.13 143.964 1014.14 143.964ZM1010.21 135.683C1010.9 135.683 1011.5 135.549 1012.02 135.283C1012.55 135.016 1013.01 134.647 1013.39 134.177C1013.76 133.706 1014.04 133.173 1014.23 132.577C1014.42 131.965 1014.52 131.322 1014.52 130.648C1014.52 130.005 1014.38 129.448 1014.12 128.977C1013.86 128.491 1013.5 128.115 1013.01 127.848C1012.54 127.581 1011.97 127.448 1011.29 127.448C1010.62 127.448 1010.01 127.581 1009.48 127.848C1008.95 128.115 1008.49 128.483 1008.12 128.954C1007.74 129.424 1007.46 129.965 1007.27 130.577C1007.08 131.173 1006.99 131.808 1006.99 132.483C1006.99 133.11 1007.11 133.667 1007.36 134.153C1007.63 134.639 1008 135.016 1008.47 135.283C1008.96 135.549 1009.54 135.683 1010.21 135.683ZM1028.72 140.176C1027.01 140.176 1025.58 139.855 1024.44 139.212C1023.29 138.553 1022.48 137.643 1021.99 136.482C1021.52 135.306 1021.44 133.941 1021.75 132.389L1023.57 123.331H1029.12L1027.33 132.295C1027.22 132.875 1027.18 133.377 1027.21 133.8C1027.24 134.224 1027.35 134.577 1027.52 134.859C1027.71 135.141 1027.96 135.353 1028.27 135.494C1028.58 135.62 1028.96 135.683 1029.4 135.683C1029.93 135.683 1030.39 135.573 1030.76 135.353C1031.16 135.134 1031.48 134.773 1031.73 134.271C1032 133.769 1032.21 133.11 1032.36 132.295L1034.15 123.331H1039.61L1037.75 132.624C1037.27 135.086 1036.27 136.961 1034.76 138.247C1033.26 139.533 1031.24 140.176 1028.72 140.176ZM1039.97 131.706L1043.26 125.095L1043.83 128.177C1042.96 128.177 1042.26 127.918 1041.71 127.401C1041.18 126.868 1040.91 126.193 1040.91 125.378C1040.91 124.389 1041.23 123.597 1041.87 123.001C1042.53 122.405 1043.32 122.107 1044.25 122.107C1045.13 122.107 1045.83 122.366 1046.34 122.884C1046.88 123.401 1047.14 124.076 1047.14 124.907C1047.14 125.346 1047.06 125.762 1046.89 126.154C1046.73 126.546 1046.45 127.04 1046.04 127.636L1043.26 131.706H1039.97ZM1043.28 139.8L1053.77 123.331H1059.23L1063.13 139.8H1057.61L1054.95 125.895H1057.11L1049.14 139.8H1043.28ZM1048.12 136.929L1050.34 132.93H1057.91L1058.52 136.929H1048.12ZM1055.7 121.99L1051.82 118.225H1056.88L1059.23 121.99H1055.7Z" fill="#2493C0"/>
<path d="M1089.35 153.753C1088.1 152.263 1087.48 150.057 1087.48 147.136V144.988C1087.48 141.979 1088.09 139.774 1089.3 138.37C1090.52 136.968 1092.53 136.267 1095.35 136.267C1098.21 136.267 1100.24 136.953 1101.45 138.326C1102.66 139.7 1103.27 141.862 1103.27 144.812V147.222C1103.27 150.144 1102.65 152.336 1101.41 153.796C1100.16 155.257 1098.14 155.986 1095.35 155.986C1092.59 155.988 1090.59 155.243 1089.35 153.753ZM1097.49 150.729C1097.83 149.941 1097.99 148.714 1097.99 147.049V144.945C1097.99 143.309 1097.83 142.14 1097.52 141.44C1097.2 140.738 1096.48 140.388 1095.35 140.388C1094.26 140.388 1093.56 140.746 1093.24 141.462C1092.92 142.177 1092.76 143.354 1092.76 144.989V147.093C1092.76 148.729 1092.93 149.941 1093.26 150.73C1093.59 151.519 1094.29 151.914 1095.35 151.914C1096.45 151.912 1097.16 151.518 1097.49 150.729ZM1110.55 136.399H1114.69L1103.95 171.939H1099.77L1110.55 136.399ZM1113.05 169.857C1111.81 168.383 1111.19 166.169 1111.19 163.219V161.071C1111.19 158.091 1111.8 155.901 1113.01 154.498C1114.22 153.096 1116.24 152.394 1119.06 152.394C1121.91 152.394 1123.94 153.081 1125.16 154.454C1126.37 155.827 1126.98 157.989 1126.98 160.939V163.306C1126.98 166.257 1126.35 168.455 1125.11 169.901C1123.87 171.347 1121.85 172.071 1119.06 172.071C1116.3 172.071 1114.3 171.333 1113.05 169.857ZM1121.2 166.813C1121.53 166.024 1121.7 164.812 1121.7 163.176V161.073C1121.7 159.436 1121.54 158.261 1121.22 157.545C1120.9 156.829 1120.18 156.472 1119.06 156.472C1117.97 156.472 1117.26 156.83 1116.94 157.545C1116.62 158.262 1116.47 159.438 1116.47 161.073V163.176C1116.47 164.812 1116.63 166.024 1116.97 166.813C1117.3 167.602 1118 167.996 1119.06 167.996C1120.15 167.996 1120.86 167.601 1121.2 166.813Z" fill="white"/>
<path d="M970 176.546H994.14" stroke="#2493C0" stroke-width="9.30346" stroke-linecap="round"/>
<path d="M1036.36 196.614L1034.54 207.266H990.922L992.513 197.761L1015.41 178.054C1016.64 176.934 1017.97 175.678 1019.39 174.285C1020.8 172.892 1022.05 171.403 1023.14 169.819C1024.26 168.207 1024.95 166.569 1025.22 164.902C1025.4 163.646 1025.37 162.444 1025.13 161.297C1024.92 160.15 1024.41 159.207 1023.58 158.47C1022.79 157.705 1021.59 157.309 1020 157.282C1018.18 157.227 1016.64 157.692 1015.41 158.675C1014.2 159.658 1013.26 160.887 1012.58 162.362C1011.93 163.837 1011.5 165.298 1011.3 166.746L996.844 166.828C997.051 162.868 998.303 159.371 1000.6 156.34C1002.93 153.308 1005.89 150.931 1009.48 149.211C1013.11 147.49 1017.01 146.657 1021.2 146.712C1025 146.766 1028.39 147.435 1031.36 148.719C1034.37 150.003 1036.68 151.901 1038.3 154.414C1039.92 156.927 1040.57 160.054 1040.25 163.796C1040.01 166.391 1039.27 168.795 1038.04 171.007C1036.83 173.219 1035.31 175.295 1033.48 177.234C1031.69 179.146 1029.76 180.976 1027.69 182.725C1025.66 184.445 1023.7 186.125 1021.82 187.764L1012.05 196.532L1036.36 196.614Z" fill="#F9F9F9"/>
<path d="M1086.47 171.913L1084.66 182.77C1084.16 186.048 1083.29 189.216 1082.05 192.275C1080.82 195.307 1079.17 198.025 1077.1 200.428C1075.07 202.832 1072.57 204.716 1069.59 206.082C1066.64 207.448 1063.15 208.09 1059.11 208.008C1056.05 207.953 1053.41 207.448 1051.2 206.492C1048.99 205.509 1047.15 204.197 1045.68 202.559C1044.23 200.92 1043.11 199.035 1042.32 196.905C1041.55 194.774 1041.08 192.507 1040.91 190.104C1040.73 187.7 1040.8 185.269 1041.13 182.811L1042.89 171.913C1043.42 168.635 1044.31 165.48 1045.55 162.449C1046.78 159.389 1048.43 156.658 1050.5 154.255C1052.56 151.851 1055.08 149.98 1058.05 148.642C1061.03 147.276 1064.52 146.634 1068.53 146.716C1071.59 146.771 1074.23 147.29 1076.44 148.273C1078.65 149.229 1080.48 150.526 1081.92 152.165C1083.36 153.804 1084.47 155.688 1085.24 157.819C1086.03 159.949 1086.52 162.216 1086.69 164.62C1086.87 167.024 1086.8 169.455 1086.47 171.913ZM1069.94 184.532L1072.24 170.069C1072.33 169.25 1072.43 168.307 1072.55 167.242C1072.67 166.177 1072.7 165.084 1072.64 163.965C1072.61 162.817 1072.43 161.752 1072.11 160.769C1071.81 159.786 1071.3 158.98 1070.56 158.352C1069.85 157.696 1068.85 157.341 1067.56 157.286C1065.73 157.204 1064.21 157.573 1063 158.393C1061.83 159.212 1060.88 160.304 1060.18 161.67C1059.47 163.009 1058.92 164.442 1058.54 165.972C1058.19 167.474 1057.91 168.854 1057.7 170.11L1055.4 184.532C1055.31 185.351 1055.21 186.307 1055.09 187.4C1054.97 188.465 1054.93 189.571 1054.96 190.718C1054.99 191.865 1055.15 192.931 1055.45 193.914C1055.77 194.897 1056.3 195.717 1057.04 196.372C1057.77 197 1058.79 197.355 1060.09 197.437C1061.91 197.519 1063.42 197.151 1064.6 196.331C1065.8 195.484 1066.76 194.392 1067.47 193.054C1068.18 191.688 1068.71 190.24 1069.06 188.711C1069.44 187.181 1069.74 185.788 1069.94 184.532Z" fill="#F9F9F9"/>
<g opacity="0.01">
<path d="M278.406 227.109C239.655 227.109 208.23 213.657 208.197 197.051L208 97.0271C207.984 89.047 215.37 81.3897 228.534 75.7433C241.696 70.0969 259.555 66.922 278.182 66.9185L1162.39 66.7427C1162.4 66.7427 1162.41 66.7427 1162.42 66.7427C1201.18 66.7427 1232.6 80.1944 1232.63 96.8003L1232.83 197.001C1232.86 213.616 1201.46 227.097 1162.68 227.111C1162.66 227.111 1162.63 227.111 1162.62 227.111C1123.86 227.112 1092.44 213.659 1092.41 197.053L1092.27 126.924L348.486 127.073L348.624 197.001C348.656 213.616 317.25 227.097 278.471 227.111C278.45 227.109 278.428 227.109 278.406 227.109Z" fill="#E6E6E6"/>
</g>
<g opacity="0.01">
<path d="M1162.61 225.577C1125.35 225.578 1095.14 212.642 1095.1 196.675L1094.96 125.39L345.78 125.539L345.92 196.625C345.953 212.602 315.751 225.563 278.468 225.576C278.449 225.576 278.425 225.576 278.409 225.576C241.151 225.576 210.932 212.641 210.9 196.674L210.7 96.6511C210.684 88.9765 217.786 81.6154 230.443 76.1865C243.1 70.7577 260.273 67.7042 278.182 67.7008L1162.39 67.5249C1162.4 67.5249 1162.41 67.5249 1162.42 67.5249C1199.68 67.5249 1229.9 80.4595 1229.93 96.4266L1230.13 196.628C1230.16 212.604 1199.96 225.565 1162.68 225.578C1162.66 225.577 1162.63 225.577 1162.61 225.577Z" fill="#E6E6E6"/>
</g>
<g opacity="0.01">
<path d="M1162.62 224.419C1126.85 224.421 1097.83 212.002 1097.8 196.674L1097.66 124.231L343.078 124.383L343.221 196.626C343.253 211.963 314.258 224.407 278.466 224.419C278.447 224.419 278.426 224.419 278.41 224.419C242.639 224.419 213.631 212.002 213.599 196.674L213.401 96.6496C213.385 89.2828 220.207 82.2156 232.356 77.0042C244.505 71.7906 260.992 68.861 278.185 68.8575L1162.39 68.6816C1162.4 68.6816 1162.41 68.6816 1162.42 68.6816C1198.19 68.6816 1227.2 81.0979 1227.23 96.4263L1227.43 196.627C1227.46 211.964 1198.47 224.408 1162.68 224.421C1162.65 224.419 1162.63 224.419 1162.62 224.419Z" fill="#E6E6E6"/>
</g>
<g opacity="0.01">
<path d="M1162.62 223.263C1128.34 223.264 1100.53 211.364 1100.51 196.674L1100.36 123.076L340.377 123.226L340.523 196.628C340.552 211.325 312.767 223.25 278.466 223.263C278.45 223.263 278.428 223.263 278.409 223.263C244.132 223.263 216.331 211.364 216.301 196.674L216.102 96.6492C216.088 89.5889 222.621 82.8167 234.265 77.8218C245.909 72.8268 261.707 70.0187 278.185 70.0152L1162.39 69.8394C1162.4 69.8394 1162.41 69.8394 1162.42 69.8394C1196.7 69.8394 1224.5 81.7384 1224.53 96.4282L1224.73 196.628C1224.76 211.325 1196.97 223.25 1162.67 223.263C1162.65 223.263 1162.63 223.263 1162.62 223.263Z" fill="#E6E6E6"/>
</g>
<g opacity="0.01">
<path d="M1162.62 222.105C1129.82 222.106 1103.24 210.723 1103.21 196.671L1103.06 121.916L337.671 122.07L337.819 196.628C337.849 210.686 311.271 222.092 278.46 222.105C278.444 222.105 278.425 222.105 278.409 222.105C245.617 222.105 219.026 210.723 218.999 196.671L218.802 96.6472C218.788 89.8947 225.04 83.4153 236.177 78.639C247.313 73.8604 262.425 71.1749 278.188 71.1715L1162.39 70.9956C1162.4 70.9956 1162.41 70.9956 1162.42 70.9956C1195.21 70.9956 1221.8 82.3774 1221.83 96.4285L1222.03 196.629C1222.06 210.688 1195.48 222.094 1162.67 222.106C1162.65 222.105 1162.63 222.105 1162.62 222.105Z" fill="#E6E6E6"/>
</g>
<g opacity="0.01">
<path d="M1162.62 220.949C1131.31 220.95 1105.93 210.084 1105.91 196.672L1105.75 120.761L334.967 120.915L335.118 196.631C335.145 210.051 309.777 220.938 278.457 220.95C278.441 220.95 278.422 220.95 278.409 220.95C247.108 220.95 221.726 210.085 221.699 196.673L221.502 96.6467C221.488 90.202 227.454 84.0176 238.086 79.4566C248.717 74.8967 263.14 72.3327 278.187 72.3292L1162.39 72.1533C1162.4 72.1533 1162.41 72.1533 1162.42 72.1533C1193.72 72.1533 1219.1 83.0191 1219.13 96.4304L1219.33 196.631C1219.35 210.051 1193.99 220.938 1162.67 220.95C1162.65 220.949 1162.63 220.949 1162.62 220.949Z" fill="#E6E6E6"/>
</g>
<g opacity="0.0117">
<path d="M1162.62 219.792C1132.81 219.793 1108.63 209.446 1108.61 196.671L1108.45 119.603L332.265 119.758L332.419 196.633C332.446 209.412 308.285 219.782 278.455 219.793C278.442 219.793 278.423 219.793 278.41 219.793C248.599 219.793 224.427 209.447 224.4 196.672L224.203 96.6458C224.19 90.5065 229.874 84.6172 239.998 80.2748C250.122 75.9324 263.859 73.4887 278.191 73.4864L1162.39 73.3105C1162.4 73.3105 1162.41 73.3105 1162.42 73.3105C1192.23 73.3105 1216.4 83.658 1216.43 96.4317L1216.63 196.633C1216.65 209.412 1192.49 219.782 1162.66 219.793C1162.65 219.792 1162.63 219.792 1162.62 219.792Z" fill="#E6E6E6"/>
</g>
<g opacity="0.0123">
<path d="M1162.62 218.634C1134.3 218.635 1111.33 208.803 1111.31 196.668L1111.15 118.444L329.561 118.6L329.718 196.633C329.742 208.773 306.791 218.624 278.455 218.635C278.439 218.635 278.423 218.635 278.409 218.635C250.092 218.635 227.125 208.805 227.1 196.67L226.903 96.6433C226.893 90.8118 232.288 85.2175 241.91 81.0915C251.529 76.9655 264.58 74.6445 278.191 74.6422L1162.4 74.4663C1162.41 74.4663 1162.41 74.4663 1162.42 74.4663C1190.74 74.4663 1213.71 84.2965 1213.73 96.4316L1213.93 196.633C1213.95 208.773 1191 218.624 1162.66 218.635C1162.65 218.634 1162.63 218.634 1162.62 218.634Z" fill="#E6E6E6"/>
</g>
<g opacity="0.0154">
<path d="M278.409 217.477C251.58 217.477 229.825 208.164 229.801 196.669L229.604 96.644C229.593 91.1191 234.707 85.8187 243.819 81.9091C252.93 77.9994 265.296 75.8022 278.19 75.7999L1162.4 75.624C1162.4 75.624 1162.42 75.624 1162.42 75.624C1189.25 75.624 1211.01 84.9371 1211.03 96.4323L1211.23 196.633C1211.25 208.135 1189.5 217.468 1162.66 217.478C1162.65 217.478 1162.63 217.478 1162.62 217.478C1135.79 217.48 1114.03 208.165 1114.01 196.67L1113.85 117.289L326.863 117.445L327.02 196.634C327.044 208.136 305.297 217.469 278.455 217.48C278.439 217.477 278.422 217.477 278.409 217.477Z" fill="#E6E6E6"/>
</g>
<g opacity="0.0162">
<path d="M1162.62 216.319C1137.28 216.321 1116.73 207.524 1116.71 196.667L1116.55 116.129L324.16 116.286L324.319 196.632C324.341 207.496 303.804 216.31 278.452 216.319C278.438 216.319 278.422 216.319 278.411 216.319C253.073 216.319 232.525 207.524 232.504 196.667L232.304 96.6421C232.293 91.4238 237.121 86.4173 245.73 82.7263C254.337 79.0342 266.014 76.9585 278.193 76.9561L1162.4 76.7803C1162.4 76.7803 1162.42 76.7803 1162.42 76.7803C1187.76 76.7803 1208.31 85.5761 1208.33 96.4326L1208.53 196.634C1208.55 207.497 1188.01 216.311 1162.66 216.321C1162.64 216.319 1162.63 216.319 1162.62 216.319Z" fill="#E6E6E6"/>
</g>
<g opacity="0.0195">
<path d="M1162.62 215.163C1138.77 215.163 1119.43 206.885 1119.41 196.666L1119.25 114.972L321.458 115.13L321.62 196.634C321.641 206.859 302.311 215.154 278.45 215.163C278.437 215.163 278.423 215.163 278.412 215.163C254.565 215.163 235.227 206.885 235.205 196.666L235.008 96.6425C234.997 91.7309 239.545 87.0206 247.643 83.5448C255.745 80.0702 266.733 78.1171 278.194 78.1148L1162.4 77.939C1162.41 77.939 1162.42 77.939 1162.42 77.939C1186.27 77.939 1205.61 86.2164 1205.63 96.4354L1205.83 196.636C1205.85 206.861 1186.52 215.156 1162.66 215.165C1162.64 215.163 1162.63 215.163 1162.62 215.163Z" fill="#E6E6E6"/>
</g>
<g opacity="0.0205">
<path d="M1162.62 214.005C1140.26 214.005 1122.13 206.244 1122.11 196.664L1121.95 113.813L318.754 113.974L318.919 196.635C318.938 206.22 300.818 213.998 278.447 214.006C278.436 214.006 278.423 214.006 278.412 214.006C256.055 214.006 237.924 206.246 237.905 196.665L237.705 96.6391C237.697 92.0353 241.956 87.6177 249.552 84.3606C257.146 81.1035 267.448 79.2719 278.193 79.2696L1162.4 79.0938C1162.41 79.0938 1162.41 79.0938 1162.42 79.0938C1184.78 79.0938 1202.91 86.854 1202.93 96.4343L1203.12 196.635C1203.14 206.22 1185.02 213.998 1162.65 214.006C1162.64 214.005 1162.63 214.005 1162.62 214.005Z" fill="#E6E6E6"/>
</g>
<g opacity="0.024">
<path d="M1162.62 212.849C1141.75 212.849 1124.83 205.606 1124.81 196.664L1124.64 112.656L316.051 112.817L316.215 196.636C316.234 205.582 299.321 212.841 278.441 212.849C278.43 212.849 278.417 212.849 278.409 212.849C257.54 212.849 240.621 205.606 240.602 196.664L240.405 96.6403C240.397 92.343 244.375 88.2217 251.461 85.1809C258.55 82.1402 268.166 80.4301 278.193 80.4278L1162.4 80.252C1162.4 80.252 1162.41 80.252 1162.42 80.252C1183.29 80.252 1200.21 87.495 1200.22 96.4367L1200.42 196.638C1200.44 205.583 1183.53 212.842 1162.65 212.85C1162.64 212.849 1162.63 212.849 1162.62 212.849Z" fill="#E6E6E6"/>
</g>
<g opacity="0.0253">
<path d="M1162.62 211.691C1143.24 211.691 1127.53 204.965 1127.51 196.662L1127.34 111.498L313.345 111.661L313.516 196.638C313.532 204.946 297.826 211.685 278.439 211.692C278.431 211.692 278.418 211.692 278.41 211.692C259.034 211.692 243.32 204.966 243.304 196.664L243.106 96.6396C243.098 92.6501 246.79 88.8215 253.374 85.9983C259.955 83.1751 268.882 81.5888 278.196 81.5865L1162.4 81.4106C1162.41 81.4106 1162.41 81.4106 1162.42 81.4106C1181.8 81.4106 1197.51 88.1365 1197.52 96.4395L1197.72 196.64C1197.74 204.948 1182.03 211.688 1162.65 211.695C1162.64 211.691 1162.62 211.691 1162.62 211.691Z" fill="#E6E6E6"/>
</g>
<g opacity="0.0291">
<path d="M1162.62 210.535C1144.73 210.535 1130.23 204.327 1130.21 196.662L1130.04 110.341L310.645 110.504L310.815 196.639C310.831 204.306 296.335 210.528 278.436 210.535C278.428 210.535 278.417 210.535 278.409 210.535C260.524 210.535 246.02 204.327 246.004 196.662L245.807 96.6378C245.799 92.955 249.209 89.4214 255.283 86.8157C261.359 84.2089 269.6 82.7441 278.196 82.7418L1162.4 82.5659C1162.41 82.5659 1162.41 82.5659 1162.42 82.5659C1180.3 82.5659 1194.81 88.7746 1194.82 96.4388L1195.02 196.64C1195.04 204.307 1180.54 210.529 1162.64 210.536C1162.63 210.535 1162.62 210.535 1162.62 210.535Z" fill="#E6E6E6"/>
</g>
<g opacity="0.0307">
<path d="M1162.62 209.379C1146.22 209.379 1132.92 203.687 1132.91 196.663L1132.74 109.185L307.944 109.349L308.114 196.64C308.128 203.669 294.839 209.373 278.436 209.379C278.425 209.379 278.417 209.379 278.409 209.379C262.015 209.379 248.718 203.687 248.704 196.663L248.507 96.639C248.499 93.2616 251.623 90.0231 257.194 87.6338C262.763 85.2456 270.318 83.9011 278.198 83.9L1162.4 83.7241H1162.42C1178.81 83.7241 1192.11 89.4156 1192.12 96.44L1192.32 196.642C1192.33 203.67 1179.05 209.374 1162.64 209.38C1162.63 209.379 1162.62 209.379 1162.62 209.379Z" fill="#E6E6E6"/>
</g>
<g opacity="0.0349">
<path d="M1162.62 208.222C1147.71 208.222 1135.62 203.048 1135.61 196.662L1135.44 108.027L305.241 108.192L305.413 196.641C305.427 203.031 293.345 208.216 278.433 208.222C278.425 208.222 278.417 208.222 278.409 208.222C263.502 208.222 251.418 203.048 251.404 196.662L251.207 96.638C251.202 93.5684 254.043 90.6237 259.103 88.452C264.167 86.2802 271.037 85.0584 278.198 85.0572L1162.4 84.8813C1162.41 84.8813 1162.42 84.8813 1162.42 84.8813C1177.32 84.8813 1189.41 90.0556 1189.42 96.4413L1189.62 196.642C1189.63 203.033 1177.55 208.217 1162.64 208.223C1162.63 208.222 1162.62 208.222 1162.62 208.222Z" fill="#E6E6E6"/>
</g>
<g opacity="0.0369">
<path d="M1162.62 207.065C1149.2 207.065 1138.32 202.409 1138.31 196.661L1138.14 106.87L302.538 107.038L302.714 196.644C302.724 202.396 291.855 207.062 278.431 207.067C278.423 207.067 278.415 207.067 278.41 207.067C264.994 207.067 254.116 202.411 254.105 196.662L253.908 96.6385C253.903 93.8755 256.457 91.2247 261.016 89.2717C265.574 87.3174 271.753 86.2171 278.202 86.2159L1162.41 86.04H1162.42C1175.83 86.04 1186.71 90.696 1186.72 96.4442L1186.92 196.645C1186.93 202.397 1176.06 207.063 1162.64 207.068C1162.63 207.065 1162.62 207.065 1162.62 207.065Z" fill="#E6E6E6"/>
</g>
<g opacity="0.0417">
<path d="M1162.62 205.908C1150.69 205.908 1141.02 201.769 1141.01 196.66L1140.83 105.711L299.835 105.879L300.013 196.643C300.024 201.755 290.359 205.903 278.428 205.908C278.423 205.908 278.415 205.908 278.409 205.908C266.487 205.908 256.816 201.769 256.806 196.66L256.608 96.6356C256.603 94.1804 258.877 91.8246 262.927 90.0868C266.975 88.3489 272.471 87.3723 278.201 87.3712L1162.41 87.1953H1162.42C1174.34 87.1953 1184.01 91.334 1184.02 96.4435L1184.22 196.644C1184.23 201.756 1174.57 205.904 1162.63 205.909C1162.63 205.908 1162.62 205.908 1162.62 205.908Z" fill="#E6E6E6"/>
</g>
<g opacity="0.0445">
<path d="M1162.62 204.75C1152.18 204.75 1143.72 201.129 1143.71 196.658L1143.53 104.553L297.131 104.722L297.312 196.643C297.32 201.116 288.865 204.745 278.425 204.749C278.42 204.749 278.414 204.749 278.409 204.749C267.977 204.749 259.514 201.127 259.506 196.657L259.309 96.6327C259.303 94.4841 261.291 92.4222 264.836 90.903C268.382 89.3827 273.189 88.5276 278.204 88.5265L1162.41 88.3506H1162.42C1172.85 88.3506 1181.31 91.9721 1181.32 96.4429L1181.52 196.644C1181.53 201.117 1173.07 204.747 1162.63 204.75C1162.63 204.75 1162.62 204.75 1162.62 204.75Z" fill="#E6E6E6"/>
</g>
<g opacity="0.0505">
<path d="M1162.62 203.593C1153.67 203.593 1146.42 200.489 1146.41 196.657L1146.23 103.396L294.428 103.565L294.611 196.644C294.62 200.477 287.369 203.589 278.422 203.592C278.422 203.592 278.414 203.592 278.409 203.592C269.465 203.592 262.214 200.488 262.206 196.656L262.009 96.6317C262.006 94.7897 263.71 93.0241 266.748 91.7201C269.783 90.4172 273.904 89.6848 278.203 89.6837L1162.41 89.5078H1162.42C1171.36 89.5078 1178.61 92.6121 1178.62 96.4443L1178.82 196.645C1178.83 200.478 1171.58 203.59 1162.63 203.593H1162.62Z" fill="#E6E6E6"/>
</g>
<g opacity="0.0555">
<path d="M1162.62 202.435C1155.16 202.435 1149.12 199.849 1149.11 196.655L1148.93 102.237L291.725 102.408L291.912 196.644C291.917 199.839 285.879 202.432 278.42 202.434H278.409C270.956 202.434 264.913 199.848 264.907 196.654L264.71 96.6298C264.707 95.0955 266.128 93.6226 268.658 92.5373C271.188 91.452 274.623 90.8411 278.207 90.8399L1162.41 90.6641H1162.42C1169.87 90.6641 1175.92 93.25 1175.92 96.4446L1176.12 196.646C1176.12 199.84 1170.09 202.433 1162.63 202.435H1162.62Z" fill="#E6E6E6"/>
</g>
<g opacity="0.0745">
<path d="M1162.62 201.279C1156.65 201.279 1151.82 199.21 1151.81 196.654L1151.62 101.08L289.022 101.251L289.211 196.646C289.216 199.202 284.385 201.275 278.417 201.277H278.409C272.447 201.277 267.613 199.209 267.607 196.653L267.41 96.6288C267.407 95.4012 268.544 94.2233 270.57 93.3555C272.595 92.4866 275.341 91.9972 278.207 91.9972L1162.41 91.8213H1162.42C1168.38 91.8213 1173.21 93.8912 1173.22 96.446L1173.42 196.646C1173.42 199.202 1168.59 201.275 1162.62 201.277L1162.62 201.279Z" fill="#E6E6E6"/>
</g>
<path d="M1162.62 200.122C1158.14 200.122 1154.52 198.569 1154.51 196.654L1154.32 99.9219L286.321 100.095L286.51 196.646C286.513 198.563 282.889 200.119 278.417 200.121H278.409C273.937 200.121 270.31 198.568 270.308 196.653L270.11 96.629C270.108 95.708 270.958 94.824 272.479 94.1726C273.999 93.5212 276.059 93.1544 278.209 93.1544L1162.42 92.9785H1162.42C1166.89 92.9785 1170.52 94.5313 1170.52 96.4462L1170.72 196.646C1170.72 198.563 1167.1 200.119 1162.62 200.121L1162.62 200.122Z" fill="#E6E6E6"/>
<path d="M1162.62 198.733C1159.93 198.733 1157.76 197.802 1157.76 196.653L1157.56 98.5333L283.079 98.7069L283.27 196.647C283.273 197.797 281.099 198.731 278.415 198.732H278.41C275.728 198.732 273.551 197.801 273.549 196.652L273.352 96.6288C273.349 96.0758 273.859 95.5459 274.772 95.1559C275.682 94.7648 276.919 94.545 278.207 94.545L1162.41 94.3691H1162.42C1165.1 94.3691 1167.27 95.3006 1167.28 96.4495L1167.47 196.65C1167.48 197.801 1165.3 198.734 1162.62 198.735C1162.62 198.733 1162.62 198.733 1162.62 198.733Z" fill="#F7F7F7"/>
<path d="M1162.62 197.344C1161.72 197.344 1161 197.034 1161 196.649L1160.8 97.1438L279.832 97.3185L280.027 196.648C280.029 197.032 279.303 197.344 278.409 197.344C278.406 197.344 278.406 197.344 278.406 197.344C277.512 197.344 276.786 197.034 276.786 196.651L276.589 96.6266C276.586 96.4427 276.759 96.2645 277.061 96.1349C277.364 96.0053 277.78 95.9312 278.209 95.9312L1162.42 95.7554C1163.31 95.7542 1164.04 96.0655 1164.04 96.4484L1164.23 196.649C1164.24 197.034 1163.51 197.344 1162.62 197.344Z" fill="#FAFAFA"/>
<path d="M717.594 93.3658L710.464 92.9525C708.236 92.8396 706.028 92.6266 703.795 92.4343C702.68 92.3484 701.566 92.2276 700.451 92.0814C699.336 91.9351 698.216 91.835 697.1 91.6347L693.741 91.0847L690.378 90.355C689.253 90.1245 688.133 89.743 687.01 89.4299L686.166 89.1819L685.955 89.1199L685.849 89.0881L685.635 89.0054L685.249 88.8624C684.727 88.6652 684.239 88.4983 683.69 88.2758L681.886 87.4142C681.308 87.109 680.773 86.7736 680.216 86.4493C679.127 85.753 678.074 84.9518 677.112 84.014C675.193 82.1477 673.668 79.6107 673.175 76.8129C672.705 74.0263 673.188 71.0823 674.569 68.6565C675.898 66.1973 677.94 64.1514 680.403 62.7255C682.855 61.2885 685.741 60.4968 688.613 60.4142C691.494 60.322 694.296 60.9944 696.728 62.0738C697.337 62.3456 697.946 62.6142 698.491 62.9576L699.329 63.4488L699.539 63.5712L699.736 63.6952L699.756 63.7095L699.798 63.7397L699.88 63.8001L700.204 64.0417L702.787 65.9795C704.532 67.5342 706.384 69.1667 707.76 70.8359C709.281 72.4684 710.553 74.2504 711.838 76.0038C713.031 77.8207 714.17 79.6536 715.159 81.5596C716.137 83.4655 716.994 85.4558 717.543 87.5159L717.574 87.6304V87.6542L717.594 93.3658ZM716.826 92.482L716.809 87.659L716.84 87.7973C715.512 86.1425 714.163 84.5703 712.692 83.0634C711.946 82.3178 711.279 81.5325 710.51 80.814C709.752 80.0891 708.982 79.3802 708.254 78.6473C706.683 77.2723 705.198 75.8384 703.565 74.5874C702.773 73.9436 701.987 73.2553 701.19 72.7434C700.393 72.1839 699.662 71.6227 698.839 71.0648L696.051 69.3925L695.703 69.1826L695.617 69.1302L695.574 69.1047L695.552 69.092C695.888 69.3019 695.634 69.1461 695.704 69.1906L695.553 69.1238L694.951 68.8504C694.557 68.6501 694.154 68.5054 693.751 68.3624C692.142 67.7901 690.519 67.5421 688.97 67.6407C687.434 67.7853 685.942 68.1971 684.664 68.9712C683.405 69.7501 682.294 70.7754 681.641 71.9931C680.946 73.1917 680.684 74.4984 680.831 75.759C681.035 77.01 681.558 78.2976 682.623 79.4581C683.16 80.0303 683.759 80.5978 684.446 81.1224C684.808 81.3672 685.167 81.6406 685.527 81.8743L686.616 82.5213C687.056 82.755 687.581 82.9966 688.059 83.235L688.426 83.4147L688.473 83.4369L688.497 83.4481C688.608 83.4942 688.37 83.3972 688.402 83.4115L688.492 83.4465L688.67 83.518L689.383 83.8041C690.345 84.1713 691.264 84.6021 692.263 84.9423L695.257 85.9787L698.33 86.9357C700.394 87.5636 702.486 88.1534 704.597 88.7622C706.7 89.3838 708.84 89.9274 710.956 90.5823L714.154 91.5536C715.044 91.8604 715.936 92.1625 716.826 92.482Z" fill="#2493C0"/>
<path d="M723.332 92.573C724.252 92.2265 725.174 91.9022 726.097 91.5684L729.283 90.5574C731.396 89.8786 733.529 89.3158 735.623 88.6673L741.873 86.7867L744.94 85.8059L747.92 84.7409C748.918 84.3959 749.834 83.9651 750.791 83.5852L751.501 83.2927L751.677 83.2196L751.766 83.183C751.799 83.1703 751.555 83.2689 751.67 83.2212L751.693 83.21L751.739 83.1862L752.104 83.0034L753.548 82.2865L754.625 81.6315C754.982 81.3963 755.337 81.1197 755.695 80.8733C756.372 80.3392 756.983 79.7876 757.506 79.2073C758.545 78.0358 759.082 76.7641 759.274 75.5146C759.32 74.8819 759.339 74.2461 759.164 73.6166C759.137 73.2955 758.977 72.9902 758.904 72.6723C758.741 72.3719 758.657 72.0492 758.453 71.7599C757.777 70.5613 756.693 69.5137 755.422 68.7427C754.135 67.9861 752.65 67.5394 751.101 67.417C749.549 67.3248 747.911 67.5585 746.303 68.1562C745.898 68.2992 745.487 68.4343 745.094 68.641L744.492 68.9208L744.341 68.9891C744.41 68.9446 744.161 69.102 744.49 68.8906L744.468 68.9033L744.425 68.9303L744.338 68.9844L743.993 69.1958C743.072 69.7665 742.143 70.3244 741.21 70.8776C739.644 72.0428 738.068 73.0348 736.492 74.4336C734.86 75.691 733.385 77.136 731.823 78.5222L729.576 80.7032C728.81 81.4265 728.158 82.2229 727.407 82.9684C725.949 84.4897 724.608 86.0746 723.293 87.7453L723.315 87.6372L723.332 92.573ZM722.737 93.2629L722.717 87.642V87.6229L722.739 87.5339C723.274 85.48 724.116 83.4882 725.085 81.5807C726.049 79.6636 727.194 77.8402 728.359 76.0074C729.629 74.2477 730.89 72.4609 732.389 70.8156C733.759 69.1481 735.578 67.4933 737.314 65.9338C738.161 65.2726 739.013 64.6144 739.876 63.9722L740.198 63.729L740.279 63.6686L740.32 63.6384L740.34 63.6241L740.534 63.5017L740.74 63.3777L741.573 62.8833C742.117 62.54 742.715 62.257 743.319 61.9788C745.737 60.901 748.524 60.1873 751.399 60.2588C754.26 60.3351 757.161 61.0664 759.62 62.4986C760.855 63.2028 761.987 64.0628 762.997 65.0389C763.968 66.0467 764.859 67.1388 765.513 68.3787C766.907 70.7965 767.452 73.7358 766.981 76.5336C766.5 79.3377 765.019 81.9002 763.095 83.7744C762.131 84.7138 761.099 85.542 760.006 86.2383C759.449 86.5674 758.916 86.9044 758.338 87.2127L756.535 88.0839C755.99 88.3128 755.505 88.4892 754.982 88.6863L754.596 88.8294L754.382 88.9137L754.275 88.9455L754.064 89.009L753.222 89.2586C752.097 89.5718 750.983 89.966 749.859 90.206L746.498 90.9452C745.382 91.1551 744.259 91.322 743.142 91.5111C742.026 91.7146 740.91 91.8291 739.793 91.9705C738.677 92.1136 737.566 92.2503 736.449 92.3346C734.215 92.5269 732.006 92.7463 729.779 92.8623C727.577 92.9959 725.347 93.1389 723.104 93.2454L722.737 93.2629Z" fill="#2493C0"/>
<path d="M724.906 89.9746C724.915 92.429 722.775 94.424 720.127 94.432C717.481 94.4399 715.329 92.4577 715.32 90.0033C715.312 87.5504 717.45 85.5539 720.094 85.5459C722.742 85.5396 724.898 87.5218 724.906 89.9746Z" fill="#2493C0"/>
</svg>
