<svg width="81" height="80" viewBox="0 0 81 80" fill="none" xmlns="http://www.w3.org/2000/svg">
<path opacity="0.3" d="M80.5 40C80.5 62.0914 62.5914 80 40.5 80C18.4086 80 0.5 62.0914 0.5 40C0.5 17.9086 18.4086 0 40.5 0C62.5914 0 80.5 17.9086 80.5 40ZM11.4071 40C11.4071 56.0675 24.4325 69.0929 40.5 69.0929C56.5675 69.0929 69.5929 56.0675 69.5929 40C69.5929 23.9325 56.5675 10.9071 40.5 10.9071C24.4325 10.9071 11.4071 23.9325 11.4071 40Z" fill="#2F2E30"/>
<path d="M69.5 40C69.5 56.0163 56.5163 69 40.5 69C24.4837 69 11.5 56.0163 11.5 40C11.5 23.9837 24.4837 11 40.5 11C56.5163 11 69.5 23.9837 69.5 40Z" fill="black"/>
<path d="M40.4998 57.9334C38.6832 57.9334 36.8832 57.4 35.4665 56.35L28.2998 51C26.3998 49.5834 24.9165 46.6167 24.9165 44.2667V31.8667C24.9165 29.3 26.7998 26.5667 29.2165 25.6667L37.5332 22.55C39.1832 21.9334 41.7832 21.9334 43.4332 22.55L51.7498 25.6667C54.1665 26.5667 56.0498 29.3 56.0498 31.8667V44.25C56.0498 46.6167 54.5665 49.5667 52.6665 50.9834L45.4998 56.3334C44.1165 57.4 42.3165 57.9334 40.4998 57.9334ZM38.4165 24.9L30.0998 28.0167C28.6832 28.55 27.4332 30.35 27.4332 31.8834V44.2667C27.4332 45.85 28.5498 48.0667 29.7998 49L36.9665 54.35C38.8832 55.7834 42.1165 55.7834 44.0498 54.35L51.2165 49C52.4832 48.05 53.5832 45.85 53.5832 44.2667V31.8667C53.5832 30.35 52.3332 28.55 50.9165 28L42.5998 24.8834C41.4665 24.4834 39.5332 24.4834 38.4165 24.9Z" fill="#FAFAFA"/>
<path fill-rule="evenodd" clip-rule="evenodd" d="M28.2998 51L35.4665 56.35C36.8832 57.4 38.6832 57.9334 40.4998 57.9334C42.3165 57.9334 44.1165 57.4 45.4998 56.3334L52.6665 50.9834C54.5665 49.5667 56.0498 46.6167 56.0498 44.25V31.8667C56.0498 29.3 54.1665 26.5667 51.7498 25.6667L43.4332 22.55C41.7832 21.9334 39.1832 21.9334 37.5332 22.55L29.2165 25.6667C26.7998 26.5667 24.9165 29.3 24.9165 31.8667V44.2667C24.9165 46.6167 26.3998 49.5834 28.2998 51ZM37.8833 23.4867C37.8831 23.4868 37.8834 23.4867 37.8833 23.4867L29.5655 26.6038C27.5428 27.3571 25.9165 29.7149 25.9165 31.8667V44.2667C25.9165 45.2488 26.2321 46.424 26.7895 47.5349C27.3467 48.6456 28.1021 49.6052 28.8976 50.1983L36.062 55.5466C36.0623 55.5469 36.0626 55.5471 36.0629 55.5473C37.2868 56.4541 38.8713 56.9334 40.4998 56.9334C42.1312 56.9334 43.7071 56.4529 44.8892 55.5414L44.8954 55.5367L52.0683 50.182C52.8648 49.5881 53.6205 48.6315 54.1772 47.5239C54.7339 46.4161 55.0498 45.241 55.0498 44.25V31.8667C55.0498 29.7149 53.4235 27.3571 51.4008 26.6038L51.3989 26.6031L43.0831 23.4867C43.083 23.4867 43.0832 23.4868 43.0831 23.4867C42.4011 23.2319 41.4642 23.0875 40.4832 23.0875C39.5021 23.0875 38.5653 23.2319 37.8833 23.4867ZM38.0669 23.9631C38.7752 23.6988 39.6665 23.5877 40.4992 23.5854C41.3335 23.5832 42.223 23.6899 42.9327 23.9404L42.9417 23.9436L51.2784 27.0677C52.2195 27.4331 53.0323 28.1755 53.6037 29.0023C54.1748 29.8286 54.5832 30.8527 54.5832 31.8667V44.2667C54.5832 45.2619 54.2466 46.3634 53.7693 47.3181C53.2919 48.2727 52.6127 49.2029 51.8165 49.8L51.8147 49.8014L44.6454 55.1533C43.4731 56.0225 41.9603 56.425 40.5019 56.425C39.0438 56.425 37.5333 56.0226 36.3676 55.1509L29.2016 49.8014C28.4115 49.2114 27.7321 48.2796 27.2538 47.3252C26.7752 46.3703 26.4332 45.264 26.4332 44.2667V31.8834C26.4332 30.8631 26.84 29.8349 27.4126 29.0064C27.9849 28.1785 28.8007 27.4373 29.7475 27.0808L29.7489 27.0803L38.0669 23.9631ZM44.0498 54.35C42.1165 55.7834 38.8832 55.7834 36.9665 54.35L29.7998 49C28.5498 48.0667 27.4332 45.85 27.4332 44.2667V31.8834C27.4332 30.35 28.6832 28.55 30.0998 28.0167L38.4165 24.9C39.5332 24.4834 41.4665 24.4834 42.5998 24.8834L50.9165 28C52.3332 28.55 53.5832 30.35 53.5832 31.8667V44.2667C53.5832 45.85 52.4832 48.05 51.2165 49L44.0498 54.35Z" fill="#FAFAFA"/>
<path d="M38.2666 43.7167C37.9499 43.7167 37.6332 43.6 37.3832 43.35L34.6999 40.6667C34.2166 40.1834 34.2166 39.3834 34.6999 38.9C35.1832 38.4167 35.9832 38.4167 36.4666 38.9L38.2666 40.7L44.5499 34.4167C45.0332 33.9334 45.8332 33.9334 46.3166 34.4167C46.7999 34.9 46.7999 35.7 46.3166 36.1834L39.1499 43.35C38.8999 43.6 38.5832 43.7167 38.2666 43.7167Z" fill="#FAFAFA"/>
<path fill-rule="evenodd" clip-rule="evenodd" d="M38.2666 42.1142L35.7595 39.6071C35.7164 39.5641 35.6549 39.5375 35.5832 39.5375C35.5115 39.5375 35.4501 39.5641 35.407 39.6071C35.364 39.6502 35.3374 39.7117 35.3374 39.7834C35.3374 39.8551 35.364 39.9165 35.407 39.9596L38.0903 42.6429C38.1197 42.6723 38.1478 42.6892 38.1735 42.6995C38.2002 42.7103 38.2312 42.7167 38.2666 42.7167C38.3019 42.7167 38.333 42.7103 38.3596 42.6995C38.3853 42.6892 38.4134 42.6723 38.4428 42.6429L45.6095 35.4763C45.6525 35.4332 45.6791 35.3717 45.6791 35.3C45.6791 35.2283 45.6525 35.1669 45.6095 35.1238C45.5664 35.0808 45.5049 35.0542 45.4332 35.0542C45.3615 35.0542 45.3001 35.0808 45.257 35.1238L38.2666 42.1142ZM36.4666 38.9C35.9832 38.4167 35.1832 38.4167 34.6999 38.9C34.2166 39.3834 34.2166 40.1834 34.6999 40.6667L37.3832 43.35C37.6332 43.6 37.9499 43.7167 38.2666 43.7167C38.5832 43.7167 38.8999 43.6 39.1499 43.35L46.3166 36.1834C46.7999 35.7 46.7999 34.9 46.3166 34.4167C45.8332 33.9334 45.0332 33.9334 44.5499 34.4167L38.2666 40.7L36.4666 38.9Z" fill="#FAFAFA"/>
</svg>
