<svg width="81" height="80" viewBox="0 0 81 80" fill="none" xmlns="http://www.w3.org/2000/svg">
<path opacity="0.3" d="M80.5 40C80.5 62.0914 62.5914 80 40.5 80C18.4086 80 0.5 62.0914 0.5 40C0.5 17.9086 18.4086 0 40.5 0C62.5914 0 80.5 17.9086 80.5 40ZM11.4071 40C11.4071 56.0675 24.4325 69.0929 40.5 69.0929C56.5675 69.0929 69.5929 56.0675 69.5929 40C69.5929 23.9325 56.5675 10.9071 40.5 10.9071C24.4325 10.9071 11.4071 23.9325 11.4071 40Z" fill="#2F2E30"/>
<circle cx="40.5" cy="40" r="29" fill="black"/>
<path fill-rule="evenodd" clip-rule="evenodd" d="M30.4998 42.6666C29.2112 42.6666 28.1665 43.7113 28.1665 45V48.3333C28.1665 49.622 29.2112 50.6666 30.4998 50.6666C31.7885 50.6666 32.8332 49.622 32.8332 48.3333V45C32.8332 43.7113 31.7885 42.6666 30.4998 42.6666ZM26.1665 45C26.1665 42.6067 28.1066 40.6666 30.4998 40.6666C32.8931 40.6666 34.8332 42.6067 34.8332 45V48.3333C34.8332 50.7265 32.8931 52.6666 30.4998 52.6666C28.1066 52.6666 26.1665 50.7265 26.1665 48.3333V45Z" fill="white"/>
<path fill-rule="evenodd" clip-rule="evenodd" d="M50.4998 42.6666C49.2112 42.6666 48.1665 43.7113 48.1665 45V48.3333C48.1665 49.622 49.2112 50.6666 50.4998 50.6666C51.7885 50.6666 52.8332 49.622 52.8332 48.3333V45C52.8332 43.7113 51.7885 42.6666 50.4998 42.6666ZM46.1665 45C46.1665 42.6067 48.1066 40.6666 50.4998 40.6666C52.8931 40.6666 54.8332 42.6067 54.8332 45V48.3333C54.8332 50.7265 52.8931 52.6666 50.4998 52.6666C48.1066 52.6666 46.1665 50.7265 46.1665 48.3333V45Z" fill="white"/>
<path fill-rule="evenodd" clip-rule="evenodd" d="M40.4998 27.6666C37.2288 27.6666 34.0918 28.966 31.7789 31.279C29.4659 33.5919 28.1665 36.729 28.1665 40V45C28.1665 45.5522 27.7188 46 27.1665 46C26.6142 46 26.1665 45.5522 26.1665 45V40C26.1665 36.1985 27.6766 32.5528 30.3646 29.8648C33.0527 27.1767 36.6984 25.6666 40.4998 25.6666C44.3013 25.6666 47.947 27.1767 50.635 29.8648C53.3231 32.5528 54.8332 36.1985 54.8332 40V45C54.8332 45.5522 54.3855 46 53.8332 46C53.2809 46 52.8332 45.5522 52.8332 45V40C52.8332 36.729 51.5338 33.5919 49.2208 31.279C46.9079 28.966 43.7708 27.6666 40.4998 27.6666Z" fill="white"/>
<path fill-rule="evenodd" clip-rule="evenodd" d="M50.5 50.6666C51.0523 50.6666 51.5 51.1143 51.5 51.6666C51.5 53.5633 50.0176 55.0969 48.0183 56.0966C45.9722 57.1196 43.2674 57.6666 40.5 57.6666C39.9477 57.6666 39.5 57.2189 39.5 56.6666C39.5 56.1143 39.9477 55.6666 40.5 55.6666C43.0369 55.6666 45.4192 55.1601 47.1239 54.3077C48.8753 53.432 49.5 52.4221 49.5 51.6666C49.5 51.1143 49.9477 50.6666 50.5 50.6666Z" fill="white"/>
</svg>
